<?xml version="1.0" encoding="utf-8"?>
<!-- Generator: Adobe Illustrator 23.0.3, SVG Export Plug-In . SVG Version: 6.00 Build 0)  -->
<svg version="1.1" id="圖層_1" xmlns="http://www.w3.org/2000/svg" xmlns:xlink="http://www.w3.org/1999/xlink" x="0px" y="0px"
	 viewBox="0 0 127.39 120.79" style="enable-background:new 0 0 127.39 120.79;" xml:space="preserve">
<style type="text/css">
	.st0{fill:#FFFFFF;}
	.st1{fill:none;stroke:#000000;stroke-width:3;stroke-linecap:square;stroke-linejoin:bevel;stroke-miterlimit:10;}
	.st2{fill:none;stroke:#000000;stroke-width:2.9776;stroke-linecap:square;stroke-linejoin:bevel;stroke-miterlimit:10;}
</style>
<path class="st0" d="M120.39,0.77h-11.8c-2.1,0-4.09,0.95-5.42,2.57L64.84,50.32L33.27,3.11C31.97,1.17,29.78,0,27.45,0h-10.6
	c-1.26,0-2.49,0.34-3.57,0.98L3.76,6.63c-2.12,1.26-3.42,3.53-3.43,6L0,113.76c-0.01,1.86,0.73,3.65,2.04,4.96
	c1.31,1.32,3.1,2.06,4.96,2.06h10.85c2.22,0,4.3-1.05,5.62-2.83l8.48-11.42c0.9-1.21,1.38-2.67,1.38-4.17V68.36l17,27.19
	c1.28,2.05,3.52,3.29,5.94,3.29h10.81c2.1,0,4.09-0.94,5.42-2.57l21-25.7l-0.06,43.2c0,1.86,0.73,3.64,2.05,4.96
	c1.31,1.31,3.1,2.05,4.95,2.05h11.46c2.24,0,4.35-1.07,5.67-2.89l8.5-11.71c0.87-1.2,1.33-2.63,1.33-4.11V7.77
	C127.39,3.9,124.25,0.77,120.39,0.77z"/>
</svg>
