<svg id="圖層_1" data-name="圖層 1" xmlns="http://www.w3.org/2000/svg" viewBox="0 0 56.75 53.49"><defs><style>.cls-1{fill:#fff;}</style></defs><title>logo</title><path id="Path_10" data-name="Path 10" class="cls-1" d="M50.55.42,28.66,27.58,10.47.38H5.24L.38,3.17V53.12H5.73l4.19-5.64V18.63L24.7,42.28H30L46.56,22.06l0,31.05h5.65l4.2-5.78V.42Z"/><path d="M56.73,47.4a.14.14,0,0,0,0-.07h0V.41A.38.38,0,0,0,56.38,0H50.45a.35.35,0,0,0-.19.12L28.69,27,10.79.17a.3.3,0,0,0-.08-.08l0,0A.33.33,0,0,0,10.5,0H5.24a.38.38,0,0,0-.19.05L.18,2.84a0,0,0,0,1,0,0A.36.36,0,0,0,0,3v0a.2.2,0,0,0,0,.11v50a.39.39,0,0,0,.11.27.39.39,0,0,0,.27.11H5.73a.29.29,0,0,0,.16,0l0,0a.25.25,0,0,0,.1-.08H6l4.19-5.64a.37.37,0,0,0,.08-.22V19.93L24.39,42.47l0,0a.38.38,0,0,0,.09.09l0,0,.13,0h5.39a.37.37,0,0,0,.29-.14l15.85-19.4,0,30h0a.37.37,0,0,0,.07.2l0,0a.43.43,0,0,0,.17.12h0l.1,0h5.66a.36.36,0,0,0,.3-.15l4.2-5.79s0,0,0,0ZM56,47H51.13L50.93.79H56ZM10.37.89,28.2,27.56l-2.91,3.69L6.85,3.22Zm-5-.14H9.23l-3,2-4.46,0Zm0,52H.75V3.54l5.38,0L25,32.09a.38.38,0,0,0,.3.17h0a.37.37,0,0,0,.29-.14L29,27.82h0L50.18,1.46l.2,45.74L46.9,52,47,15a.37.37,0,0,0-.25-.35.37.37,0,0,0-.42.11L24.75,41.62,6.05,11.73a.37.37,0,0,0-.42-.16.38.38,0,0,0-.27.36Zm4.19-5.39L6.11,52V13.24l3.44,5.49ZM29.87,41.9H25.49L46.2,16v5.9ZM52,52.73H47.26l3.68-5h4.7Z"/></svg>