<?xml version="1.0" encoding="utf-8"?>
<!-- Generator: Adobe Illustrator 23.0.3, SVG Export Plug-In . SVG Version: 6.00 Build 0)  -->
<svg version="1.1" id="圖層_1" xmlns="http://www.w3.org/2000/svg" xmlns:xlink="http://www.w3.org/1999/xlink" x="0px" y="0px"
	 viewBox="0 0 674.51 965.15" style="enable-background:new 0 0 674.51 965.15;" xml:space="preserve">
<style type="text/css">
	.st0{enable-background:new    ;}
	.st1{fill:#2CEBBC;}
	.st2{fill:#10505A;}
	.st3{fill:#00CCD6;}
	.st4{fill:#00A1A8;}
	.st5{fill:#00CCCA;}
</style>
<g id="XMLID_526_">
	<g class="st0">
		<g>
			<polygon class="st1" points="258.75,190.21 258.75,206.36 36.23,206.35 36.46,190.32 			"/>
		</g>
		<g>
			<polygon class="st2" points="258.75,206.36 258.69,221.1 63.67,221.01 36.23,206.35 			"/>
		</g>
	</g>
</g>
<g id="XMLID_524_">
	<polygon id="XMLID_525_" class="st2" points="170.69,63.96 239.36,111.12 201.09,111.39 170.53,90.53 	"/>
</g>
<g id="XMLID_520_">
	<polygon id="XMLID_4_" class="st1" points="150.17,116.13 150.49,11.36 111.14,11.36 111.14,87.27 	"/>
</g>
<g id="XMLID_512_">
	<polygon id="XMLID_181_" class="st2" points="92.19,110.6 170.59,164.5 136.77,164.5 92.15,135.42 	"/>
</g>
<g id="XMLID_490_">
	<rect id="XMLID_511_" x="32.77" y="58.17" class="st1" width="39.02" height="216.58"/>
</g>
<g id="XMLID_486_">
	<polygon id="XMLID_487_" class="st2" points="71.79,274.75 92.15,285.8 53.35,285.8 32.77,274.75 	"/>
</g>
<polygon class="st3" points="239.36,111.12 239.36,72.1 150.5,11.37 150.49,11.36 150.49,11.36 150.49,11.36 150.49,11.37 
	150.17,116.13 92.15,73.23 92.15,73.18 71.79,58.17 71.79,274.75 92.15,285.8 92.15,110.66 170.59,164.5 170.47,143.51 
	170.69,63.96 "/>
<g id="XMLID_481_">
	<polygon id="XMLID_482_" class="st1" points="619.21,55.28 657.99,55.28 657.99,155.31 619.21,128.83 	"/>
</g>
<g id="XMLID_475_">
	<polygon id="XMLID_12_" class="st2" points="611.34,162.04 647.9,186.62 611.31,186.62 	"/>
</g>
<g id="XMLID_477_">
	<polygon id="XMLID_479_" class="st3" points="553.54,108.89 553.54,14.96 532.33,0 532.33,108.89 	"/>
</g>
<g id="XMLID_452_">
	<polygon id="XMLID_459_" class="st2" points="589.91,294.17 611.31,305.04 572.17,304.6 551.85,294.17 	"/>
</g>
<polygon class="st3" points="674.51,166.58 674.51,166.58 674.51,66.01 657.99,55.28 657.99,155.31 589.91,108.84 589.91,294.17 
	611.31,305.04 611.31,162.08 647.9,186.62 "/>
<polygon class="st1" points="590.86,294.17 589.91,108.84 550.98,108.89 532.33,108.89 532.33,0 493.93,0 493.93,111.19 
	551.17,149.59 551.85,294.17 "/>
<g id="XMLID_414_">
	<polygon id="XMLID_415_" class="st1" points="384.23,156.42 419.68,156.42 419.68,262.44 384.23,239.05 	"/>
</g>
<g id="XMLID_411_">
	<polyline id="XMLID_412_" class="st3" points="318.17,231.87 318.17,147.42 297.38,133.9 297.38,231.87 	"/>
</g>
<polygon class="st2" points="419.67,156.42 387.93,136.07 387.93,136.07 384.57,133.9 297.38,133.9 318.17,147.42 369.36,147.42 
	384.17,156.42 "/>
<polygon class="st2" points="404.63,290.6 373.33,270.8 297.84,270.87 319.15,284.48 358.24,284.48 368.31,290.6 "/>
<polygon class="st1" points="384.57,133.9 384.57,95.5 282.87,95.5 258.69,133.9 258.69,244.56 297.84,270.85 297.84,270.85 
	297.84,270.85 373.33,270.85 373.33,231.87 297.71,231.87 297.71,133.9 "/>
<polygon class="st3" points="420.6,120.15 384.53,95.5 384.53,133.9 419.67,156.39 419.68,262.44 373.33,231.87 373.33,270.8 
	404.63,290.6 432.35,270.75 432.35,164.51 "/>
<g>
	<polygon class="st2" points="477.02,206.36 477.01,221.08 318.17,221.03 318.22,206.35 	"/>
</g>
<g id="XMLID_345_">
	<polygon id="XMLID_346_" class="st3" points="38.94,605.09 59.24,618.61 59.24,703.06 38.94,703.06 	"/>
</g>
<g id="XMLID_341_">
	<polygon id="XMLID_342_" class="st1" points="103.41,627.27 138.32,627.27 138.32,733.42 103.41,710.5 	"/>
</g>
<polygon class="st2" points="138.32,627.27 103.41,605.09 38.94,605.09 59.24,618.61 88.92,618.61 103.41,627.27 "/>
<polygon class="st2" points="123.75,761.8 92.08,742.05 0,742.07 18.78,753.15 72.34,753.15 87.15,761.8 "/>
<polygon class="st3" points="139.43,591.78 103.41,566.58 103.41,605.09 138.32,627.27 138.32,733.42 92.08,703.06 92.08,742.05 
	123.75,761.8 151.18,741.94 151.18,635.44 "/>
<polygon class="st1" points="103.41,605.09 103.41,566.58 0,566.58 0,742.05 92.08,742.05 92.08,703.06 38.94,703.06 38.94,605.09 
	"/>
<g id="XMLID_274_">
	<polygon id="XMLID_49_" class="st2" points="224.56,744.95 256.39,767.31 224.56,767.31 	"/>
</g>
<g id="XMLID_5_">
	<polygon id="XMLID_50_" class="st2" points="224.58,827.2 256.39,849.81 224.56,849.81 	"/>
</g>
<g id="XMLID_272_">
	<polygon id="XMLID_273_" class="st2" points="204.08,896.7 252.93,931.79 214.19,931.85 165.15,896.7 	"/>
</g>
<g id="XMLID_270_">
	<rect id="XMLID_271_" x="165.15" y="694.09" class="st1" width="38.94" height="202.6"/>
</g>
<g id="XMLID_258_">
	<polygon id="XMLID_259_" class="st2" points="341.32,883.6 296.92,883.6 318.7,899.68 363.45,899.68 	"/>
</g>
<polygon class="st1" points="341.32,847.69 271.68,847.69 271.68,864.96 296.92,883.6 296.92,883.6 296.92,883.6 341.32,883.6 "/>
<g id="XMLID_254_">
	<polygon id="XMLID_255_" class="st3" points="330.92,766.56 330.92,735.86 310.46,722.34 310.46,766.56 	"/>
</g>
<g id="XMLID_252_">
	<polygon id="XMLID_253_" class="st2" points="373.26,722.34 310.46,722.34 330.92,735.86 394.36,735.86 	"/>
</g>
<g id="XMLID_249_">
	<polygon id="XMLID_250_" class="st4" points="334.48,805.59 310.46,805.59 331.77,819.2 334.48,819.2 	"/>
</g>
<g id="XMLID_245_">
	<polygon class="st1" points="310.46,766.58 310.46,722.34 373.26,722.34 373.26,683.94 295.86,683.94 271.68,722.34 271.68,779.45 
		310.46,805.56 334.48,805.56 334.48,847.69 341.32,847.69 373.35,869.39 373.35,766.58 	"/>
</g>
<polygon class="st3" points="389.51,880.42 389.63,880.47 389.63,777.06 373.35,766.58 373.35,869.44 341.32,847.69 341.32,883.62 
	363.44,899.68 389.65,880.51 "/>
<polygon id="XMLID_242_" class="st3" points="394.36,697.46 394.36,735.86 373.26,722.34 373.26,683.94 "/>
<g id="XMLID_229_">
	<g>
		<path class="st2" d="M335.63,244.21c0.96,0,1.79,0.12,2.5,0.35c0.7,0.23,1.31,0.56,1.82,0.97c1.01,0.82,1.66,1.96,1.97,3.43
			l-3.02,0.55c-0.26-0.82-0.65-1.48-1.19-1.98c-0.54-0.5-1.2-0.76-2-0.76c-1.09,0-1.97,0.46-2.64,1.37
			c-0.72,0.99-1.08,2.36-1.08,4.12s0.32,3.12,0.96,4.1c0.64,0.98,1.51,1.48,2.62,1.48c1.1,0,1.94-0.27,2.5-0.8
			c0.56-0.54,0.84-1.23,0.84-2.08h3.05c0,1.74-0.56,3.09-1.67,4.04s-2.64,1.43-4.57,1.43c-2.06,0-3.71-0.72-4.92-2.16
			c-1.23-1.47-1.85-3.47-1.85-6c0-2.56,0.63-4.56,1.9-6C332.04,244.89,333.64,244.21,335.63,244.21z"/>
		<path class="st2" d="M345.25,244.52h2.83v15.58h-2.83V244.52z"/>
		<path class="st2" d="M360.73,248.81c-0.26-1.36-1.22-2.04-2.88-2.04c-0.82,0-1.45,0.17-1.91,0.49c-0.46,0.33-0.68,0.72-0.68,1.19
			s0.15,0.83,0.44,1.09s0.76,0.51,1.38,0.73l3.38,1.32c1.15,0.45,2.04,1.01,2.66,1.69s0.94,1.53,0.94,2.56
			c0,1.41-0.53,2.52-1.58,3.35c-1.06,0.82-2.56,1.24-4.51,1.24c-1.73,0-3.13-0.42-4.2-1.27c-1.2-0.93-1.83-2.24-1.9-3.94h2.81
			c0,1.28,0.66,2.09,1.99,2.42c0.4,0.11,0.93,0.17,1.58,0.17c0.66,0,1.26-0.16,1.82-0.49c0.56-0.33,0.84-0.77,0.84-1.32
			s-0.15-0.98-0.46-1.27c-0.3-0.3-0.8-0.57-1.49-0.83l-3.1-1.22c-1.2-0.46-2.12-1.01-2.76-1.63s-0.96-1.49-0.96-2.59
			c0-1.3,0.5-2.32,1.51-3.07c1.02-0.78,2.41-1.18,4.16-1.18s3.1,0.4,4.06,1.21s1.5,1.94,1.64,3.4H360.73z"/>
	</g>
</g>
<g id="XMLID_227_">
	<g>
		<path class="st2" d="M26.7,585.79h-6.5v6.79h6.5v2.83H11.12v-2.83h6.6v-6.79h-6.6v-2.83H26.7V585.79z"/>
		<path class="st2" d="M26.7,597.81v12.48h-2.45v-4.82H11.12v-2.83h13.13v-4.82H26.7z"/>
		<path class="st2" d="M26.7,616.73L17.44,621l9.26,4.27v3.91H11.12v-2.86h11.83l-10.13-4.42v-1.85l10.46-4.56H11.12v-2.83H26.7
			V616.73z"/>
		<path class="st2" d="M13.6,636.48v6.41h-2.47v-9.24H26.7v2.83H13.6z"/>
		<path class="st2" d="M29,656.78v2.9l-19.82-6.19v-2.88L29,656.78z"/>
		<path class="st2" d="M27.01,674.57c0,0.96-0.12,1.79-0.35,2.5c-0.23,0.7-0.56,1.31-0.97,1.82c-0.82,1.01-1.96,1.66-3.43,1.97
			l-0.55-3.02c0.82-0.26,1.48-0.65,1.98-1.19c0.5-0.54,0.76-1.2,0.76-2c0-1.09-0.46-1.97-1.37-2.64c-0.99-0.72-2.36-1.08-4.12-1.08
			s-3.12,0.32-4.1,0.96c-0.98,0.64-1.48,1.51-1.48,2.62c0,1.1,0.27,1.94,0.8,2.5c0.54,0.56,1.23,0.84,2.08,0.84v3.05
			c-1.74,0-3.09-0.56-4.04-1.67s-1.43-2.64-1.43-4.57c0-2.06,0.72-3.71,2.16-4.92c1.47-1.23,3.47-1.85,6-1.85
			c2.56,0,4.56,0.63,6,1.9C26.33,670.98,27.01,672.58,27.01,674.57z"/>
		<path class="st2" d="M22.41,692.37c1.36-0.26,2.04-1.22,2.04-2.88c0-0.82-0.17-1.45-0.49-1.91c-0.33-0.46-0.72-0.68-1.19-0.68
			s-0.83,0.15-1.09,0.44s-0.51,0.76-0.73,1.38l-1.32,3.38c-0.45,1.15-1.01,2.04-1.69,2.66s-1.53,0.94-2.56,0.94
			c-1.41,0-2.52-0.53-3.35-1.58c-0.82-1.06-1.24-2.56-1.24-4.51c0-1.73,0.42-3.13,1.27-4.2c0.93-1.2,2.24-1.83,3.94-1.9v2.81
			c-1.28,0-2.09,0.66-2.42,1.99c-0.11,0.4-0.17,0.93-0.17,1.58c0,0.66,0.16,1.26,0.49,1.82c0.33,0.56,0.77,0.84,1.32,0.84
			s0.98-0.15,1.27-0.46c0.3-0.3,0.57-0.8,0.83-1.49l1.22-3.1c0.46-1.2,1.01-2.12,1.63-2.76s1.49-0.96,2.59-0.96
			c1.3,0,2.32,0.5,3.07,1.51c0.78,1.02,1.18,2.41,1.18,4.16s-0.4,3.1-1.21,4.06s-1.94,1.5-3.4,1.64V692.37z"/>
		<path class="st2" d="M22.41,707.68c1.36-0.26,2.04-1.22,2.04-2.88c0-0.82-0.17-1.45-0.49-1.91c-0.33-0.46-0.72-0.68-1.19-0.68
			s-0.83,0.15-1.09,0.44s-0.51,0.76-0.73,1.38l-1.32,3.38c-0.45,1.15-1.01,2.04-1.69,2.66s-1.53,0.94-2.56,0.94
			c-1.41,0-2.52-0.53-3.35-1.58c-0.82-1.06-1.24-2.56-1.24-4.51c0-1.73,0.42-3.13,1.27-4.2c0.93-1.2,2.24-1.83,3.94-1.9v2.81
			c-1.28,0-2.09,0.66-2.42,1.99c-0.11,0.4-0.17,0.93-0.17,1.58c0,0.66,0.16,1.26,0.49,1.82c0.33,0.56,0.77,0.84,1.32,0.84
			s0.98-0.15,1.27-0.46c0.3-0.3,0.57-0.8,0.83-1.49l1.22-3.1c0.46-1.2,1.01-2.12,1.63-2.76s1.49-0.96,2.59-0.96
			c1.3,0,2.32,0.5,3.07,1.51c0.78,1.02,1.18,2.41,1.18,4.16s-0.4,3.1-1.21,4.06s-1.94,1.5-3.4,1.64V707.68z"/>
	</g>
</g>
<g id="XMLID_16_">
	<g>
		<path class="st2" d="M175.23,709.35h2.83c-0.71,1.23-1.06,2.42-1.06,3.58c0,0.69,0.2,1.19,0.6,1.5c0.4,0.31,1.01,0.47,1.82,0.47
			h10.73v2.86h-10.73c-1.79,0-3.13-0.43-4.01-1.3c-0.78-0.77-1.18-1.82-1.18-3.17C174.25,711.94,174.58,710.63,175.23,709.35z"/>
		<path class="st2" d="M190.16,725.45V729l-15.58,5.11v-3l3.36-1.08v-5.78l-3.36-1.1v-3L190.16,725.45z M180.08,724.97v4.37
			l6.7-2.16L180.08,724.97z"/>
		<path class="st2" d="M190.16,737.36l-12.02,3.79l12.02,3.84v2.98l-15.58-5.35v-2.98l15.58-5.28V737.36z"/>
		<path class="st2" d="M190.16,753.29v3.55l-15.58,5.11v-3l3.36-1.08v-5.78l-3.36-1.1v-3L190.16,753.29z M180.08,752.81v4.37
			l6.7-2.16L180.08,752.81z"/>
		<path class="st2" d="M185.86,772.9c1.36-0.26,2.04-1.22,2.04-2.88c0-0.82-0.17-1.45-0.49-1.91c-0.33-0.46-0.72-0.68-1.19-0.68
			s-0.83,0.15-1.09,0.44s-0.51,0.76-0.73,1.38l-1.32,3.38c-0.45,1.15-1.01,2.04-1.69,2.66s-1.53,0.94-2.56,0.94
			c-1.41,0-2.52-0.53-3.35-1.58c-0.82-1.06-1.24-2.56-1.24-4.51c0-1.73,0.42-3.13,1.27-4.2c0.93-1.2,2.24-1.83,3.94-1.9v2.81
			c-1.28,0-2.09,0.66-2.42,1.99c-0.11,0.4-0.17,0.93-0.17,1.58c0,0.66,0.16,1.26,0.49,1.82c0.33,0.56,0.77,0.84,1.32,0.84
			s0.98-0.15,1.27-0.46c0.3-0.3,0.57-0.8,0.83-1.49l1.22-3.1c0.46-1.2,1.01-2.12,1.63-2.76s1.49-0.96,2.59-0.96
			c1.3,0,2.32,0.5,3.07,1.51c0.78,1.02,1.18,2.41,1.18,4.16s-0.4,3.1-1.21,4.06s-1.94,1.5-3.4,1.64V772.9z"/>
		<path class="st2" d="M190.47,785.62c0,0.96-0.12,1.79-0.35,2.5c-0.23,0.7-0.56,1.31-0.97,1.82c-0.82,1.01-1.96,1.66-3.43,1.97
			l-0.55-3.02c0.82-0.26,1.48-0.65,1.98-1.19c0.5-0.54,0.76-1.2,0.76-2c0-1.09-0.46-1.97-1.37-2.64c-0.99-0.72-2.36-1.08-4.12-1.08
			s-3.12,0.32-4.1,0.96c-0.98,0.64-1.48,1.51-1.48,2.62c0,1.1,0.27,1.94,0.8,2.5c0.54,0.56,1.23,0.84,2.08,0.84v3.05
			c-1.74,0-3.09-0.56-4.04-1.67s-1.43-2.64-1.43-4.57c0-2.06,0.72-3.71,2.16-4.92c1.47-1.23,3.47-1.85,6-1.85
			c2.56,0,4.56,0.63,6,1.9C189.78,782.04,190.47,783.64,190.47,785.62z"/>
		<path class="st2" d="M185.38,806.81c-1.1,0-2.05-0.31-2.83-0.94s-1.33-1.52-1.63-2.69l-6.34,4.18v-3.7l6.07-3.43v-2.16h-6.07
			v-2.83h15.58V801c0,1.84-0.44,3.27-1.32,4.3C187.99,806.31,186.84,806.81,185.38,806.81z M182.55,800.74
			c0,1.04,0.24,1.82,0.71,2.35s1.1,0.79,1.87,0.79s1.4-0.24,1.87-0.72c0.47-0.48,0.71-1.2,0.71-2.16v-2.93h-5.16V800.74z"/>
		<path class="st2" d="M190.16,810.7v2.83h-15.58v-2.83H190.16z"/>
		<path class="st2" d="M188.87,827.54c-0.86,0.98-2.08,1.48-3.67,1.48c-1.59,0-2.82-0.49-3.67-1.48c-0.86-0.98-1.28-2.36-1.28-4.12
			v-2.64h-5.66v-2.86h15.58v5.5C190.16,825.18,189.73,826.55,188.87,827.54z M182.72,823.42c0,0.88,0.23,1.54,0.7,1.99
			c0.46,0.45,1.06,0.67,1.79,0.67c0.73,0,1.33-0.22,1.8-0.67c0.47-0.45,0.71-1.11,0.71-1.99v-2.64h-4.99V823.42z"/>
		<path class="st2" d="M190.16,829.85v12.48h-2.45v-4.82h-13.13v-2.83h13.13v-4.82H190.16z"/>
	</g>
</g>
<g id="XMLID_11_">
	<g>
		<path class="st2" d="M291.89,414.53c1.42-0.27,2.12-1.27,2.12-3c0-0.85-0.17-1.51-0.51-1.99c-0.34-0.47-0.75-0.71-1.24-0.71
			s-0.86,0.15-1.14,0.46c-0.27,0.31-0.53,0.79-0.76,1.44l-1.38,3.53c-0.47,1.2-1.05,2.12-1.76,2.77c-0.71,0.65-1.6,0.98-2.66,0.98
			c-1.47,0-2.63-0.55-3.49-1.65c-0.86-1.1-1.29-2.67-1.29-4.7c0-1.8,0.44-3.26,1.32-4.38c0.97-1.25,2.33-1.91,4.1-1.97v2.92
			c-1.33,0-2.17,0.69-2.53,2.08c-0.12,0.42-0.17,0.97-0.17,1.65c0,0.68,0.17,1.32,0.51,1.9c0.34,0.58,0.8,0.88,1.38,0.88
			s1.02-0.16,1.33-0.47c0.31-0.32,0.6-0.83,0.86-1.55l1.27-3.23c0.48-1.25,1.05-2.21,1.7-2.88c0.65-0.67,1.55-1,2.7-1
			c1.35,0,2.42,0.53,3.2,1.58c0.82,1.07,1.22,2.51,1.22,4.34c0,1.82-0.42,3.23-1.26,4.22c-0.84,0.99-2.02,1.56-3.54,1.71V414.53z"/>
		<path class="st2" d="M296.36,425.7v3.7l-16.22,5.32v-3.12l3.5-1.12v-6.02l-3.5-1.15v-3.12L296.36,425.7z M285.86,425.2v4.55
			l6.98-2.25L285.86,425.2z"/>
		<path class="st2" d="M291.89,446.13c1.42-0.27,2.12-1.27,2.12-3c0-0.85-0.17-1.51-0.51-1.99c-0.34-0.47-0.75-0.71-1.24-0.71
			s-0.86,0.15-1.14,0.46c-0.27,0.31-0.53,0.79-0.76,1.44l-1.38,3.53c-0.47,1.2-1.05,2.12-1.76,2.77c-0.71,0.65-1.6,0.98-2.66,0.98
			c-1.47,0-2.63-0.55-3.49-1.65c-0.86-1.1-1.29-2.67-1.29-4.7c0-1.8,0.44-3.26,1.32-4.38c0.97-1.25,2.33-1.91,4.1-1.97v2.92
			c-1.33,0-2.17,0.69-2.53,2.08c-0.12,0.42-0.17,0.97-0.17,1.65c0,0.68,0.17,1.32,0.51,1.9c0.34,0.58,0.8,0.88,1.38,0.88
			s1.02-0.16,1.33-0.47c0.31-0.32,0.6-0.83,0.86-1.55l1.27-3.23c0.48-1.25,1.05-2.21,1.7-2.88c0.65-0.67,1.55-1,2.7-1
			c1.35,0,2.42,0.53,3.2,1.58c0.82,1.07,1.22,2.51,1.22,4.34c0,1.82-0.42,3.23-1.26,4.22c-0.84,0.99-2.02,1.56-3.54,1.71V446.13z"/>
		<path class="st2" d="M291.89,462.08c1.42-0.27,2.12-1.27,2.12-3c0-0.85-0.17-1.51-0.51-1.99c-0.34-0.47-0.75-0.71-1.24-0.71
			s-0.86,0.15-1.14,0.46c-0.27,0.31-0.53,0.79-0.76,1.44l-1.38,3.53c-0.47,1.2-1.05,2.12-1.76,2.77c-0.71,0.65-1.6,0.98-2.66,0.98
			c-1.47,0-2.63-0.55-3.49-1.65c-0.86-1.1-1.29-2.67-1.29-4.7c0-1.8,0.44-3.26,1.32-4.38c0.97-1.25,2.33-1.91,4.1-1.97v2.92
			c-1.33,0-2.17,0.69-2.53,2.08c-0.12,0.42-0.17,0.97-0.17,1.65c0,0.68,0.17,1.32,0.51,1.9c0.34,0.58,0.8,0.88,1.38,0.88
			s1.02-0.16,1.33-0.47c0.31-0.32,0.6-0.83,0.86-1.55l1.27-3.23c0.48-1.25,1.05-2.21,1.7-2.88c0.65-0.67,1.55-1,2.7-1
			c1.35,0,2.42,0.53,3.2,1.58c0.82,1.07,1.22,2.51,1.22,4.34c0,1.82-0.42,3.23-1.26,4.22c-0.84,0.99-2.02,1.56-3.54,1.71V462.08z"/>
	</g>
</g>
<polygon id="XMLID_224_" class="st3" points="447.8,369.95 462.95,392.5 462.96,446.29 447.8,435.69 "/>
<polygon id="XMLID_217_" class="st3" points="494.07,190.24 509.18,218.14 509.23,392.5 494.07,369.95 "/>
<g id="XMLID_213_">
	<polygon id="XMLID_214_" class="st1" points="270.77,385.5 309.37,385.5 309.37,531.94 270.77,506.1 	"/>
</g>
<g id="XMLID_56_">
	<g>
		<path class="st2" d="M355.87,787.08c1.36-0.26,2.04-1.22,2.04-2.88c0-0.82-0.17-1.45-0.49-1.91c-0.33-0.46-0.72-0.68-1.19-0.68
			s-0.83,0.15-1.09,0.44s-0.51,0.76-0.73,1.38l-1.32,3.38c-0.45,1.15-1.01,2.04-1.69,2.66s-1.53,0.94-2.56,0.94
			c-1.41,0-2.52-0.53-3.35-1.58c-0.82-1.06-1.24-2.56-1.24-4.51c0-1.73,0.42-3.13,1.27-4.2c0.93-1.2,2.24-1.83,3.94-1.9v2.81
			c-1.28,0-2.09,0.66-2.42,1.99c-0.11,0.4-0.17,0.93-0.17,1.58c0,0.66,0.16,1.26,0.49,1.82c0.33,0.56,0.77,0.84,1.32,0.84
			s0.98-0.15,1.27-0.46c0.3-0.3,0.57-0.8,0.83-1.49l1.22-3.1c0.46-1.2,1.01-2.12,1.63-2.76s1.49-0.96,2.59-0.96
			c1.3,0,2.32,0.5,3.07,1.51c0.78,1.02,1.18,2.41,1.18,4.16s-0.4,3.1-1.21,4.06s-1.94,1.5-3.4,1.64V787.08z"/>
		<path class="st2" d="M360.17,797.81v3.55l-15.58,5.11v-3l3.36-1.08v-5.78l-3.36-1.1v-3L360.17,797.81z M350.09,797.33v4.37
			l6.7-2.16L350.09,797.33z"/>
		<path class="st2" d="M355.87,817.41c1.36-0.26,2.04-1.22,2.04-2.88c0-0.82-0.17-1.45-0.49-1.91c-0.33-0.46-0.72-0.68-1.19-0.68
			s-0.83,0.15-1.09,0.44s-0.51,0.76-0.73,1.38l-1.32,3.38c-0.45,1.15-1.01,2.04-1.69,2.66s-1.53,0.94-2.56,0.94
			c-1.41,0-2.52-0.53-3.35-1.58c-0.82-1.06-1.24-2.56-1.24-4.51c0-1.73,0.42-3.13,1.27-4.2c0.93-1.2,2.24-1.83,3.94-1.9v2.81
			c-1.28,0-2.09,0.66-2.42,1.99c-0.11,0.4-0.17,0.93-0.17,1.58c0,0.66,0.16,1.26,0.49,1.82c0.33,0.56,0.77,0.84,1.32,0.84
			s0.98-0.15,1.27-0.46c0.3-0.3,0.57-0.8,0.83-1.49l1.22-3.1c0.46-1.2,1.01-2.12,1.63-2.76s1.49-0.96,2.59-0.96
			c1.3,0,2.32,0.5,3.07,1.51c0.78,1.02,1.18,2.41,1.18,4.16s-0.4,3.1-1.21,4.06s-1.94,1.5-3.4,1.64V817.41z"/>
		<path class="st2" d="M355.87,832.73c1.36-0.26,2.04-1.22,2.04-2.88c0-0.82-0.17-1.45-0.49-1.91c-0.33-0.46-0.72-0.68-1.19-0.68
			s-0.83,0.15-1.09,0.44s-0.51,0.76-0.73,1.38l-1.32,3.38c-0.45,1.15-1.01,2.04-1.69,2.66s-1.53,0.94-2.56,0.94
			c-1.41,0-2.52-0.53-3.35-1.58c-0.82-1.06-1.24-2.56-1.24-4.51c0-1.73,0.42-3.13,1.27-4.2c0.93-1.2,2.24-1.83,3.94-1.9v2.81
			c-1.28,0-2.09,0.66-2.42,1.99c-0.11,0.4-0.17,0.93-0.17,1.58c0,0.66,0.16,1.26,0.49,1.82c0.33,0.56,0.77,0.84,1.32,0.84
			s0.98-0.15,1.27-0.46c0.3-0.3,0.57-0.8,0.83-1.49l1.22-3.1c0.46-1.2,1.01-2.12,1.63-2.76s1.49-0.96,2.59-0.96
			c1.3,0,2.32,0.5,3.07,1.51c0.78,1.02,1.18,2.41,1.18,4.16s-0.4,3.1-1.21,4.06s-1.94,1.5-3.4,1.64V832.73z"/>
	</g>
</g>
<g id="XMLID_211_">
	<polygon id="XMLID_14_" class="st2" points="252.04,530.6 298.77,562.75 263.08,562.75 234.12,543.5 	"/>
</g>
<g id="XMLID_206_">
	<polygon id="XMLID_207_" class="st1" points="196.43,403.68 235.42,403.68 235.42,518.79 196.43,491.94 	"/>
</g>
<g id="XMLID_202_">
	<polygon id="XMLID_204_" class="st3" points="170.54,485.89 170.54,304.61 149.9,290.31 149.9,485.92 	"/>
</g>
<g id="XMLID_200_">
	<polygon id="XMLID_201_" class="st2" points="187.65,524.94 224.81,550.19 187.07,550.19 149.33,524.94 	"/>
</g>
<polygon class="st3" points="326.28,543.26 326.28,543.26 326.28,396.38 309.37,385.5 309.37,531.94 252.33,493.75 252.33,414.56 
	235.42,403.68 235.42,518.79 187.65,485.89 187.65,524.96 224.82,550.19 252.04,530.6 298.77,562.75 "/>
<polygon class="st1" points="187.65,485.89 149.87,485.92 149.87,290.31 111.14,290.31 111.14,499.06 149.33,524.93 149.33,524.96 
	149.38,524.96 187.65,524.96 "/>
<g id="XMLID_194_">
	<g>
		<path class="st2" d="M272.2,146.1c-1.87-0.67-2.81-1.96-2.81-3.86c0-1.95,0.74-3.56,2.21-4.82c1.52-1.31,3.46-1.97,5.83-1.97
			c2.5,0,4.5,0.7,6,2.11c1.46,1.36,2.18,3.11,2.18,5.26c0,1.46-0.32,2.68-0.95,3.66c-0.63,0.98-1.63,1.76-2.99,2.32l-0.67-2.9
			c1.36-0.85,2.04-1.92,2.04-3.22c0-1.18-0.5-2.17-1.51-2.95c-1.02-0.82-2.39-1.22-4.1-1.22c-1.62,0-2.93,0.37-3.94,1.1
			c-0.99,0.72-1.49,1.68-1.49,2.88c0,1.02,0.33,1.86,0.98,2.52c0.67,0.67,1.59,1.01,2.76,1.01h0.1l0.07-3.5h1.82v6.22h-8.02v-2.3
			L272.2,146.1z"/>
		<path class="st2" d="M280.53,164.37c-1.1,0-2.05-0.31-2.83-0.94s-1.33-1.52-1.63-2.69l-6.34,4.18v-3.7l6.07-3.43v-2.16h-6.07
			v-2.83h15.58v5.76c0,1.84-0.44,3.27-1.32,4.3C283.14,163.86,281.99,164.37,280.53,164.37z M277.7,158.3
			c0,1.04,0.24,1.82,0.71,2.35s1.1,0.79,1.87,0.79s1.4-0.24,1.87-0.72c0.47-0.48,0.71-1.2,0.71-2.16v-2.93h-5.16V158.3z"/>
		<path class="st2" d="M285.31,171.86v3.55l-15.58,5.11v-3l3.36-1.08v-5.78l-3.36-1.1v-3L285.31,171.86z M275.23,171.38v4.37
			l6.7-2.16L275.23,171.38z"/>
		<path class="st2" d="M284.02,192.82c-0.86,0.98-2.08,1.48-3.67,1.48c-1.59,0-2.82-0.49-3.67-1.48c-0.86-0.98-1.28-2.36-1.28-4.12
			v-2.64h-5.66v-2.86h15.58v5.5C285.31,190.46,284.88,191.84,284.02,192.82z M277.87,188.7c0,0.88,0.23,1.54,0.7,1.99
			c0.46,0.45,1.06,0.67,1.79,0.67c0.73,0,1.33-0.22,1.8-0.67c0.47-0.45,0.71-1.11,0.71-1.99v-2.64h-4.99V188.7z"/>
		<path class="st2" d="M285.31,200.05h-6.5v6.79h6.5v2.83h-15.58v-2.83h6.6v-6.79h-6.6v-2.83h15.58V200.05z"/>
		<path class="st2" d="M285.31,214.17V217h-15.58v-2.83H285.31z"/>
		<path class="st2" d="M285.62,227.05c0,0.96-0.12,1.79-0.35,2.5c-0.23,0.7-0.56,1.31-0.97,1.82c-0.82,1.01-1.96,1.66-3.43,1.97
			l-0.55-3.02c0.82-0.26,1.48-0.65,1.98-1.19c0.5-0.54,0.76-1.2,0.76-2c0-1.09-0.46-1.97-1.37-2.64c-0.99-0.72-2.36-1.08-4.12-1.08
			s-3.12,0.32-4.1,0.96c-0.98,0.64-1.48,1.51-1.48,2.62c0,1.1,0.27,1.94,0.8,2.5c0.54,0.56,1.23,0.84,2.08,0.84v3.05
			c-1.74,0-3.09-0.56-4.04-1.67s-1.43-2.64-1.43-4.57c0-2.06,0.72-3.71,2.16-4.92c1.47-1.23,3.47-1.85,6-1.85
			c2.56,0,4.56,0.63,6,1.9C284.93,223.47,285.62,225.07,285.62,227.05z"/>
	</g>
</g>
<g id="XMLID_193_">
	<path class="st2" d="M59.33,76.98h-9.7c-1.28,0-2.2,0.32-2.76,0.97c-0.56,0.65-0.84,1.48-0.84,2.51c0,1.02,0.28,1.86,0.84,2.51
		c0.56,0.65,1.48,0.97,2.76,0.97h9.7v2.83h-9.7c-1.98,0-3.52-0.55-4.6-1.66c-1.08-1.1-1.62-2.66-1.62-4.66s0.54-3.55,1.62-4.66
		c1.08-1.1,2.61-1.66,4.6-1.66h9.7V76.98z"/>
	<path class="st2" d="M59.33,90.95v2.83H43.75v-2.83H59.33z"/>
	<path class="st2" d="M59.33,109.36c0,2.37-0.7,4.28-2.11,5.74c-1.41,1.47-3.3,2.21-5.69,2.21c-2.37,0-4.26-0.74-5.66-2.21
		c-1.41-1.46-2.11-3.37-2.11-5.74v-5.06h15.58V109.36z M46.32,107.15v2.21c0,1.47,0.5,2.66,1.49,3.58c0.96,0.86,2.2,1.3,3.72,1.3
		c1.55,0,2.81-0.43,3.77-1.3c0.98-0.9,1.46-2.09,1.46-3.58v-2.21H46.32z"/>
	<path class="st2" d="M59.33,120.75v10.03h-2.45v-7.2h-4.1v6.74h-2.45v-6.74h-4.1v7.2h-2.47v-10.03H59.33z"/>
	<path class="st2" d="M55.03,143.03c1.36-0.26,2.04-1.22,2.04-2.88c0-0.82-0.17-1.45-0.49-1.91c-0.33-0.46-0.72-0.68-1.19-0.68
		s-0.83,0.15-1.09,0.44s-0.51,0.76-0.73,1.38l-1.32,3.38c-0.45,1.15-1.01,2.04-1.69,2.66s-1.53,0.94-2.56,0.94
		c-1.41,0-2.52-0.53-3.35-1.58c-0.82-1.06-1.24-2.56-1.24-4.51c0-1.73,0.42-3.13,1.27-4.2c0.93-1.2,2.24-1.83,3.94-1.9v2.81
		c-1.28,0-2.09,0.66-2.42,1.99c-0.11,0.4-0.17,0.93-0.17,1.58c0,0.66,0.16,1.26,0.49,1.82c0.33,0.56,0.77,0.84,1.32,0.84
		s0.98-0.15,1.27-0.46c0.3-0.3,0.57-0.8,0.83-1.49l1.22-3.1c0.46-1.2,1.01-2.12,1.63-2.76s1.49-0.96,2.59-0.96
		c1.3,0,2.32,0.5,3.07,1.51c0.78,1.02,1.18,2.41,1.18,4.16s-0.4,3.1-1.21,4.06s-1.94,1.5-3.4,1.64V143.03z"/>
	<path class="st2" d="M59.33,150.15v2.83H43.75v-2.83H59.33z"/>
	<path class="st2" d="M46.23,167c-1.87-0.67-2.81-1.96-2.81-3.86c0-1.95,0.74-3.56,2.21-4.82c1.52-1.31,3.46-1.97,5.83-1.97
		c2.5,0,4.5,0.7,6,2.11c1.46,1.36,2.18,3.11,2.18,5.26c0,1.46-0.32,2.68-0.95,3.66c-0.63,0.98-1.63,1.76-2.99,2.32l-0.67-2.9
		c1.36-0.85,2.04-1.92,2.04-3.22c0-1.18-0.5-2.17-1.51-2.95c-1.02-0.82-2.39-1.22-4.1-1.22c-1.62,0-2.93,0.37-3.94,1.1
		c-0.99,0.72-1.49,1.68-1.49,2.88c0,1.02,0.33,1.86,0.98,2.52c0.67,0.67,1.59,1.01,2.76,1.01h0.1l0.07-3.5h1.82v6.22h-8.02v-2.3
		L46.23,167z"/>
	<path class="st2" d="M59.33,176.75l-11.04,6.86h11.04v2.83H43.75v-2.88l11.42-7.08H43.75v-2.83h15.58V176.75z"/>
</g>
<g id="XMLID_13_">
	<path class="st2" d="M136.43,307.33l-11.83,3.43l10.8,3.34v1.92l-10.85,3.53l11.88,3.65v3.19l-15.58-5.35v-2.98l8.78-2.93
		l-8.78-2.9v-2.98l15.58-5.09V307.33z"/>
	<path class="st2" d="M136.43,329.08v10.03h-2.45v-7.2h-4.1v6.74h-2.45v-6.74h-4.1v7.2h-2.47v-10.03H136.43z"/>
	<path class="st2" d="M136.43,343.17v6.29c0,1.73-0.41,3.06-1.22,4.01c-0.75,0.9-1.72,1.34-2.9,1.34c-0.88,0-1.63-0.24-2.26-0.73
		s-1.06-1.17-1.32-2.05c-0.18,0.88-0.57,1.61-1.19,2.18c-0.62,0.58-1.4,0.86-2.36,0.86c-1.92,0-3.23-0.95-3.94-2.86
		c-0.26-0.72-0.38-1.63-0.38-2.74v-6.31H136.43z M123.33,349.4c0,0.91,0.18,1.57,0.55,1.98c0.37,0.41,0.86,0.61,1.46,0.61
		c0.61,0,1.1-0.21,1.48-0.64s0.56-1.08,0.56-1.96V346h-4.06V349.4z M129.86,346v3.34c0,0.85,0.18,1.49,0.55,1.92
		c0.37,0.43,0.87,0.65,1.5,0.65s1.14-0.21,1.51-0.64c0.38-0.42,0.56-1.06,0.56-1.91V346H129.86z"/>
	<path class="st2" d="M136.43,369.83c0,2.37-0.7,4.28-2.11,5.74c-1.41,1.47-3.3,2.21-5.69,2.21c-2.37,0-4.26-0.74-5.66-2.21
		c-1.41-1.46-2.11-3.37-2.11-5.74v-5.06h15.58V369.83z M123.43,367.62v2.21c0,1.47,0.5,2.66,1.49,3.58c0.96,0.86,2.2,1.3,3.72,1.3
		c1.55,0,2.81-0.43,3.77-1.3c0.98-0.9,1.46-2.09,1.46-3.58v-2.21H123.43z"/>
	<path class="st2" d="M136.43,381.23v10.03h-2.45v-7.2h-4.1v6.74h-2.45v-6.74h-4.1v7.2h-2.47v-10.03H136.43z"/>
	<path class="st2" d="M132.14,403.5c1.36-0.26,2.04-1.22,2.04-2.88c0-0.82-0.17-1.45-0.49-1.91c-0.33-0.46-0.72-0.68-1.19-0.68
		s-0.83,0.15-1.09,0.44s-0.51,0.76-0.73,1.38l-1.32,3.38c-0.45,1.15-1.01,2.04-1.69,2.66c-0.68,0.62-1.53,0.94-2.56,0.94
		c-1.41,0-2.52-0.53-3.35-1.58c-0.82-1.06-1.24-2.56-1.24-4.51c0-1.73,0.42-3.13,1.27-4.2c0.93-1.2,2.24-1.83,3.94-1.9v2.81
		c-1.28,0-2.09,0.66-2.42,1.99c-0.11,0.4-0.17,0.93-0.17,1.58c0,0.66,0.16,1.26,0.49,1.82c0.33,0.56,0.77,0.84,1.32,0.84
		s0.98-0.15,1.27-0.46c0.3-0.3,0.57-0.8,0.83-1.49l1.22-3.1c0.46-1.2,1.01-2.12,1.63-2.76s1.49-0.96,2.59-0.96
		c1.3,0,2.32,0.5,3.07,1.51c0.78,1.02,1.18,2.41,1.18,4.16s-0.4,3.1-1.21,4.06s-1.94,1.5-3.4,1.64V403.5z"/>
	<path class="st2" d="M136.43,410.63v2.83h-15.58v-2.83H136.43z"/>
	<path class="st2" d="M123.33,427.48c-1.87-0.67-2.81-1.96-2.81-3.86c0-1.95,0.74-3.56,2.21-4.82c1.52-1.31,3.46-1.97,5.83-1.97
		c2.5,0,4.5,0.7,6,2.11c1.46,1.36,2.18,3.11,2.18,5.26c0,1.46-0.32,2.68-0.95,3.66c-0.63,0.98-1.63,1.76-2.99,2.32l-0.67-2.9
		c1.36-0.85,2.04-1.92,2.04-3.22c0-1.18-0.5-2.17-1.51-2.95c-1.02-0.82-2.39-1.22-4.1-1.22c-1.62,0-2.93,0.37-3.94,1.1
		c-0.99,0.72-1.49,1.68-1.49,2.88c0,1.02,0.33,1.86,0.98,2.52c0.67,0.67,1.59,1.01,2.76,1.01h0.1l0.07-3.5h1.82v6.22h-8.02v-2.3
		L123.33,427.48z"/>
	<path class="st2" d="M136.43,437.22l-11.04,6.86h11.04v2.83h-15.58v-2.88l11.42-7.08h-11.42v-2.83h15.58V437.22z"/>
</g>
<g id="XMLID_17_">
	<path class="st2" d="M283.61,402.66v6.41h-2.47v-9.24h15.58v2.83H283.61z"/>
	<path class="st2" d="M297.03,417.66c0,1.04-0.17,1.99-0.52,2.86c-0.34,0.86-0.85,1.61-1.52,2.23c-1.41,1.31-3.42,1.97-6.05,1.97
		c-2.64,0-4.68-0.66-6.12-1.97c-1.34-1.25-2.02-2.95-2.02-5.11c0-2.14,0.69-3.84,2.06-5.09c1.42-1.31,3.45-1.97,6.07-1.97
		c2.66,0,4.69,0.66,6.1,1.97C296.36,413.78,297.03,415.48,297.03,417.66z M288.9,421.79c1.78,0,3.16-0.37,4.13-1.12
		c0.97-0.74,1.45-1.75,1.45-3.01s-0.48-2.27-1.45-3.02c-0.97-0.75-2.34-1.13-4.13-1.13s-3.15,0.38-4.1,1.13
		c-0.95,0.75-1.43,1.76-1.43,3.02s0.48,2.27,1.43,3.01C285.75,421.41,287.12,421.79,288.9,421.79z"/>
	<path class="st2" d="M283.61,437.63c-1.87-0.67-2.81-1.96-2.81-3.86c0-1.95,0.74-3.56,2.21-4.82c1.52-1.31,3.46-1.97,5.83-1.97
		c2.5,0,4.5,0.7,6,2.11c1.46,1.36,2.18,3.11,2.18,5.26c0,1.46-0.32,2.68-0.95,3.66c-0.63,0.98-1.63,1.76-2.99,2.32l-0.67-2.9
		c1.36-0.85,2.04-1.92,2.04-3.22c0-1.18-0.5-2.17-1.51-2.95c-1.02-0.82-2.39-1.22-4.1-1.22c-1.62,0-2.93,0.37-3.94,1.1
		c-0.99,0.72-1.49,1.68-1.49,2.88c0,1.02,0.33,1.86,0.98,2.52c0.67,0.67,1.59,1.01,2.76,1.01h0.1l0.07-3.5h1.82v6.22h-8.02v-2.3
		L283.61,437.63z"/>
	<path class="st2" d="M297.03,450.3c0,1.04-0.17,1.99-0.52,2.86c-0.34,0.86-0.85,1.61-1.52,2.23c-1.41,1.31-3.42,1.97-6.05,1.97
		c-2.64,0-4.68-0.66-6.12-1.97c-1.34-1.25-2.02-2.95-2.02-5.11c0-2.14,0.69-3.84,2.06-5.09c1.42-1.31,3.45-1.97,6.07-1.97
		c2.66,0,4.69,0.66,6.1,1.97C296.36,446.42,297.03,448.12,297.03,450.3z M288.9,454.43c1.78,0,3.16-0.37,4.13-1.12
		c0.97-0.74,1.45-1.75,1.45-3.01s-0.48-2.27-1.45-3.02c-0.97-0.75-2.34-1.13-4.13-1.13s-3.15,0.38-4.1,1.13
		c-0.95,0.75-1.43,1.76-1.43,3.02s0.48,2.27,1.43,3.01C285.75,454.05,287.12,454.43,288.9,454.43z"/>
</g>
<polygon class="st1" points="494.07,369.95 494.07,190.29 318.17,190.29 318.17,206.35 477.02,206.36 476.97,354.2 430.7,354.2 
	430.7,423.69 447.8,435.69 447.8,369.95 "/>
<polygon id="XMLID_191_" class="st2" points="494.07,369.95 509.23,392.5 462.95,392.5 447.8,369.95 "/>
<g id="XMLID_187_">
	<rect id="XMLID_188_" x="378.44" y="414.46" class="st1" width="39.02" height="61.56"/>
</g>
<g id="XMLID_185_">
	<polygon id="XMLID_186_" class="st3" points="417.45,414.46 493.23,467.47 493.23,526.24 417.45,476.02 	"/>
</g>
<g id="XMLID_182_">
	<polygon id="XMLID_183_" class="st1" points="509.23,467.47 509.17,476.35 582.16,526.44 493.23,526.44 493.23,467.47 	"/>
</g>
<polygon class="st2" points="646.39,543.51 548.19,476.35 509.17,476.35 582.16,526.5 493.09,526.15 417.45,476.02 378.44,476.02 
	477.98,543.51 "/>
<polygon id="XMLID_157_" class="st1" points="430.76,504.42 447.81,504.42 447.81,629.1 443.27,626 430.71,626 "/>
<polygon id="XMLID_156_" class="st3" points="447.81,504.42 462.92,514.69 462.97,639.44 447.81,629.1 "/>
<g id="XMLID_162_">
	<rect id="XMLID_179_" x="509.17" y="415.6" class="st1" width="39.02" height="60.76"/>
</g>
<g id="XMLID_158_">
	<polygon id="XMLID_159_" class="st3" points="548.19,415.6 646.39,493.42 646.39,543.51 548.19,476.35 	"/>
</g>
<g id="XMLID_154_">
	<polygon id="XMLID_155_" class="st2" points="443.47,687.18 541.26,754.12 502.99,754.12 404.45,687.18 	"/>
</g>
<g id="XMLID_152_">
	<polygon id="XMLID_153_" class="st1" points="443.27,626 443.47,687.18 404.45,687.18 404.45,626 	"/>
</g>
<g id="XMLID_148_">
	<polygon id="XMLID_150_" class="st3" points="443.27,626 541.59,693.08 541.67,754.33 443.47,687.18 	"/>
</g>
<polygon id="XMLID_144_" class="st5" points="463.83,913.37 463.83,886.41 453,877.57 453.01,838.42 463.83,838.42 463.83,828.87 
	444.15,815.4 444.15,913.37 "/>
<polygon id="XMLID_142_" class="st2" points="471.77,877.57 453,877.57 468.66,890.34 471.77,890.34 "/>
<polygon id="XMLID_140_" class="st2" points="480.99,952.75 500.25,965.15 464.06,965.15 444.15,952.75 "/>
<polygon id="XMLID_138_" class="st5" points="521.1,789.98 521.1,828.93 500,815.4 500,776.46 "/>
<polygon id="XMLID_137_" class="st2" points="500,815.4 444.15,815.4 463.83,828.87 521.1,828.87 "/>
<polygon id="XMLID_136_" class="st2" points="524.76,877.57 505.89,877.57 522.58,890.34 541.25,890.34 "/>
<polygon id="XMLID_131_" class="st5" points="541.25,851.39 541.25,890.34 524.76,877.57 524.76,838.42 "/>
<polygon class="st1" points="524.76,877.57 524.76,838.42 453.01,838.42 453.01,877.57 471.76,877.57 471.76,913.37 480.99,913.37 
	505.89,932.28 505.89,877.57 "/>
<polygon class="st5" points="522.58,945.29 522.58,890.34 505.89,877.57 505.89,932.28 480.99,913.37 480.99,952.75 500.25,965.15 
	"/>
<polygon class="st1" points="500,815.4 500,776.46 430.74,776.46 404.45,815.4 404.45,926.46 444.15,952.75 480.99,952.75 
	480.99,913.37 444.15,913.37 444.15,815.4 "/>
<g id="XMLID_125_">
	<polygon id="XMLID_126_" class="st1" points="618.06,664.26 618.06,680.37 456.09,680.37 456.09,664.32 	"/>
</g>
<g id="XMLID_116_">
	<polygon id="XMLID_118_" class="st2" points="618.06,680.37 618.06,695.04 482.15,695.04 456.09,680.37 	"/>
</g>
<polygon id="XMLID_115_" class="st1" points="656.59,606.76 618.06,606.76 618.06,726.7 656.59,752.78 "/>
<g id="XMLID_98_">
	<polygon id="XMLID_99_" class="st2" points="618.06,765.85 674.51,803.97 640.69,803.97 618.06,790.41 	"/>
</g>
<g id="XMLID_89_">
	<rect id="XMLID_96_" x="560.27" y="713.96" class="st1" width="38.93" height="176.8"/>
</g>
<g id="XMLID_58_">
	<polygon id="XMLID_62_" class="st2" points="599.19,890.76 618.06,901.18 579.13,901.18 560.27,890.76 	"/>
</g>
<polygon class="st3" points="674.51,619.2 656.59,606.76 656.59,752.78 618.06,726.7 599.19,713.96 599.19,890.76 618.06,901.18 
	618.06,765.85 674.51,803.97 674.51,764.91 674.5,764.91 674.51,764.91 "/>
<g id="XMLID_1_">
	<g>
		<path class="st2" d="M577.94,123.28v2.83h-15.58v-2.83H577.94z"/>
		<path class="st2" d="M564.84,133.4v6.41h-2.47v-9.24h15.58v2.83H564.84z"/>
		<path class="st2" d="M564.84,145.26v6.41h-2.47v-9.24h15.58v2.83H564.84z"/>
		<path class="st2" d="M577.94,156.87h-9.7c-1.28,0-2.2,0.32-2.76,0.97c-0.56,0.65-0.84,1.48-0.84,2.51c0,1.02,0.28,1.86,0.84,2.51
			c0.56,0.65,1.48,0.97,2.76,0.97h9.7v2.83h-9.7c-1.98,0-3.52-0.55-4.6-1.66c-1.08-1.1-1.62-2.66-1.62-4.66s0.54-3.55,1.62-4.66
			c1.08-1.1,2.61-1.66,4.6-1.66h9.7V156.87z"/>
		<path class="st2" d="M573.65,179.03c1.36-0.26,2.04-1.22,2.04-2.88c0-0.82-0.17-1.45-0.49-1.91c-0.33-0.46-0.72-0.68-1.19-0.68
			s-0.83,0.15-1.09,0.44s-0.51,0.76-0.73,1.38l-1.32,3.38c-0.45,1.15-1.01,2.04-1.69,2.66s-1.53,0.94-2.56,0.94
			c-1.41,0-2.52-0.53-3.35-1.58c-0.82-1.06-1.24-2.56-1.24-4.51c0-1.73,0.42-3.13,1.27-4.2c0.93-1.2,2.24-1.83,3.94-1.9v2.81
			c-1.28,0-2.09,0.66-2.42,1.99c-0.11,0.4-0.17,0.93-0.17,1.58c0,0.66,0.16,1.26,0.49,1.82c0.33,0.56,0.77,0.84,1.32,0.84
			s0.98-0.15,1.27-0.46c0.3-0.3,0.57-0.8,0.83-1.49l1.22-3.1c0.46-1.2,1.01-2.12,1.63-2.76s1.49-0.96,2.59-0.96
			c1.3,0,2.32,0.5,3.07,1.51c0.78,1.02,1.18,2.41,1.18,4.16s-0.4,3.1-1.21,4.06s-1.94,1.5-3.4,1.64V179.03z"/>
		<path class="st2" d="M577.94,184.06v12.48h-2.45v-4.82h-13.13v-2.83h13.13v-4.82H577.94z"/>
		<path class="st2" d="M573.17,210.49c-1.1,0-2.05-0.31-2.83-0.94s-1.33-1.52-1.63-2.69l-6.34,4.18v-3.7l6.07-3.43v-2.16h-6.07
			v-2.83h15.58v5.76c0,1.84-0.44,3.27-1.32,4.3C575.77,209.99,574.62,210.49,573.17,210.49z M570.33,204.42
			c0,1.04,0.24,1.82,0.71,2.35s1.1,0.79,1.87,0.79s1.4-0.24,1.87-0.72c0.47-0.48,0.71-1.2,0.71-2.16v-2.93h-5.16V204.42z"/>
		<path class="st2" d="M577.94,217.98v3.55l-15.58,5.11v-3l3.36-1.08v-5.78l-3.36-1.1v-3L577.94,217.98z M567.86,217.5v4.37
			l6.7-2.16L567.86,217.5z"/>
		<path class="st2" d="M577.94,226.23v12.48h-2.45v-4.82h-13.13v-2.83h13.13v-4.82H577.94z"/>
		<path class="st2" d="M577.94,241.09v2.83h-15.58v-2.83H577.94z"/>
		<path class="st2" d="M578.25,254.36c0,1.04-0.17,1.99-0.52,2.86c-0.34,0.86-0.85,1.61-1.52,2.23c-1.41,1.31-3.42,1.97-6.05,1.97
			c-2.64,0-4.68-0.66-6.12-1.97c-1.34-1.25-2.02-2.95-2.02-5.11c0-2.14,0.69-3.84,2.06-5.09c1.42-1.31,3.45-1.97,6.07-1.97
			c2.66,0,4.69,0.66,6.1,1.97C577.59,250.48,578.25,252.18,578.25,254.36z M570.13,258.49c1.78,0,3.16-0.37,4.13-1.12
			c0.97-0.74,1.45-1.75,1.45-3.01s-0.48-2.27-1.45-3.02c-0.97-0.75-2.34-1.13-4.13-1.13s-3.15,0.38-4.1,1.13
			c-0.95,0.75-1.43,1.76-1.43,3.02s0.48,2.27,1.43,3.01C566.98,258.12,568.35,258.49,570.13,258.49z"/>
		<path class="st2" d="M577.94,267.83l-11.04,6.86h11.04v2.83h-15.58v-2.88l11.42-7.08h-11.42v-2.83h15.58V267.83z"/>
	</g>
</g>
<g id="XMLID_225_">
	<g>
		<path class="st2" d="M571.4,730.8h2.83c-0.71,1.23-1.06,2.42-1.06,3.58c0,0.69,0.2,1.19,0.6,1.5c0.4,0.31,1.01,0.47,1.82,0.47
			h10.73v2.86h-10.73c-1.79,0-3.13-0.43-4.01-1.3c-0.78-0.77-1.18-1.82-1.18-3.17C570.41,733.39,570.74,732.08,571.4,730.8z"/>
		<path class="st2" d="M566.86,756.14c-0.29-0.66-0.43-1.37-0.43-2.14c0-1.55,0.81-2.86,2.42-3.94l1.56-1.03
			c0.03-2.06,0.74-3.71,2.11-4.94c1.46-1.26,3.46-1.9,6.02-1.9c2.66,0,4.69,0.66,6.1,1.97c1.33,1.23,1.99,2.93,1.99,5.09
			c0,2.14-0.68,3.85-2.04,5.11c-1.41,1.31-3.42,1.97-6.05,1.97c-2.16,0-3.88-0.42-5.17-1.25s-2.16-1.95-2.6-3.36l-0.6,0.38
			c-0.59,0.38-0.9,0.95-0.94,1.7c0,0.69,0.18,1.46,0.55,2.33H566.86z M578.51,753.41c1.78,0,3.16-0.37,4.13-1.12
			c0.97-0.74,1.45-1.75,1.45-3.01s-0.48-2.27-1.45-3.02c-0.97-0.75-2.34-1.13-4.13-1.13s-3.15,0.38-4.1,1.13
			c-0.95,0.75-1.43,1.76-1.43,3.02s0.48,2.27,1.43,3.01C575.36,753.03,576.73,753.41,578.51,753.41z"/>
		<path class="st2" d="M586.32,762.36h-9.7c-1.28,0-2.2,0.32-2.76,0.97c-0.56,0.65-0.84,1.48-0.84,2.51c0,1.02,0.28,1.86,0.84,2.51
			c0.56,0.65,1.48,0.97,2.76,0.97h9.7v2.83h-9.7c-1.98,0-3.52-0.55-4.6-1.66c-1.08-1.1-1.62-2.66-1.62-4.66s0.54-3.55,1.62-4.66
			c1.08-1.1,2.61-1.66,4.6-1.66h9.7V762.36z"/>
		<path class="st2" d="M586.32,776.3v10.03h-2.45v-7.2h-4.1v6.74h-2.45v-6.74h-4.1v7.2h-2.47V776.3H586.32z"/>
		<path class="st2" d="M581.55,801.96c-1.1,0-2.05-0.31-2.83-0.94s-1.33-1.52-1.63-2.69l-6.34,4.18v-3.7l6.07-3.43v-2.16h-6.07
			v-2.83h15.58v5.76c0,1.84-0.44,3.27-1.32,4.3C584.16,801.45,583,801.96,581.55,801.96z M578.71,795.89c0,1.04,0.24,1.82,0.71,2.35
			s1.1,0.79,1.87,0.79s1.4-0.24,1.87-0.72c0.47-0.48,0.71-1.2,0.71-2.16v-2.93h-5.16V795.89z"/>
		<path class="st2" d="M586.32,807.36l-6.22,3.43l6.22,3.6v3.34l-9.14-5.54h-6.43v-2.83h6.43l9.14-5.35V807.36z"/>
	</g>
</g>
<polygon class="st3" points="256.39,767.31 256.39,730.72 224.56,708.41 224.56,708.41 224.52,708.38 204.08,694.04 204.08,896.71 
	252.93,931.79 252.93,895.02 224.56,875.34 224.56,827.2 256.39,849.81 256.39,813.23 224.56,790.66 224.56,744.94 "/>
<g id="XMLID_52_">
	<g>
		<path class="st2" d="M445.74,789.01l3.79,12.02l3.84-12.02h2.98L451,804.59h-2.98l-5.28-15.58H445.74z"/>
		<path class="st2" d="M461.65,789.01v9.7c0,1.28,0.32,2.2,0.97,2.76c0.65,0.56,1.48,0.84,2.51,0.84c1.02,0,1.86-0.28,2.51-0.84
			c0.65-0.56,0.97-1.48,0.97-2.76v-9.7h2.83v9.7c0,1.98-0.55,3.52-1.66,4.6c-1.1,1.08-2.66,1.62-4.66,1.62s-3.55-0.54-4.66-1.62
			c-1.1-1.08-1.66-2.61-1.66-4.6v-9.7H461.65z"/>
		<path class="st2" d="M475.6,789.01h10.03v2.45h-7.2v4.1h6.74v2.45h-6.74v4.1h7.2v2.47H475.6V789.01z"/>
	</g>
</g>
<g>
</g>
<g>
</g>
<g>
</g>
<g>
</g>
<g>
</g>
<g>
</g>
</svg>
